<svg width="1134pt" height="249pt" viewBox="0.00 0.00 1134.00 249.00" xmlns="http://www.w3.org/2000/svg" xmlns:xlink="http://www.w3.org/1999/xlink">
    <g id="graph0" class="graph" transform="scale(1 1) rotate(0) translate(4 245.19)">
        <polygon fill="#ffffff" stroke="none" points="-4,4 -4,-245.19 1129.51,-245.19 1129.51,4 -4,4"/>
        <g id="clust1" class="cluster">
            <title>cluster_solution_architecture_team (Sequential Agent)</title>
            <path fill="none" stroke="#666666" d="M429.11,-14.19C429.11,-14.19 1105.51,-14.19 1105.51,-14.19 1111.51,-14.19 1117.51,-20.19 1117.51,-26.19 1117.51,-26.19 1117.51,-218.19 1117.51,-218.19 1117.51,-224.19 1111.51,-230.19 1105.51,-230.19 1105.51,-230.19 429.11,-230.19 429.11,-230.19 423.11,-230.19 417.11,-224.19 417.11,-218.19 417.11,-218.19 417.11,-26.19 417.11,-26.19 417.11,-20.19 423.11,-14.19 429.11,-14.19"/>
            <text xml:space="preserve" text-anchor="middle" x="767.31" y="-213.59" font-family="Roboto, sans-serif" font-size="14.00" fill="#666666">solution_architecture_team (Sequential Agent)</text>
        </g>
        <g id="clust2" class="cluster">
            <title>cluster_solutioning_room (Loop Agent)</title>
            <path fill="none" stroke="#666666" d="M437.11,-22.19C437.11,-22.19 1097.51,-22.19 1097.51,-22.19 1103.51,-22.19 1109.51,-28.19 1109.51,-34.19 1109.51,-34.19 1109.51,-141.19 1109.51,-141.19 1109.51,-147.19 1103.51,-153.19 1097.51,-153.19 1097.51,-153.19 437.11,-153.19 437.11,-153.19 431.11,-153.19 425.11,-147.19 425.11,-141.19 425.11,-141.19 425.11,-34.19 425.11,-34.19 425.11,-28.19 431.11,-22.19 437.11,-22.19"/>
            <text xml:space="preserve" text-anchor="middle" x="767.31" y="-136.59" font-family="Roboto, sans-serif" font-size="14.00" fill="#666666">solutioning_room (Loop Agent)</text>
        </g>
        <!-- root_agent -->
        <g id="node1" class="node">
            <title>root_agent</title>
            <ellipse fill="lightgreen" stroke="green" cx="64.4" cy="-169.19" rx="64.4" ry="18"/>
            <text xml:space="preserve" text-anchor="middle" x="64.4" y="-164.99" font-family="Roboto, sans-serif" font-size="14.00" fill="#666666">🤖 root_agent</text>
        </g>
        <!-- solutioning_room -->
        <g id="node2" class="node">
            <title>solutioning_room</title>
            <ellipse fill="#cccccc" stroke="#666666" cx="280.96" cy="-169.19" rx="79.71" ry="18"/>
            <text xml:space="preserve" text-anchor="middle" x="280.96" y="-164.99" font-family="Roboto, sans-serif" font-size="14.00" fill="#666666">solutioning_room</text>
        </g>
        <!-- root_agent&#45;&gt;solutioning_room -->
        <g id="edge1" class="edge">
            <title>root_agent-&gt;solutioning_room</title>
            <path fill="none" stroke="#666666" d="M129.2,-169.19C148.08,-169.19 169.12,-169.19 189.36,-169.19"/>
            <polygon fill="#666666" stroke="#666666" points="189.31,-172.69 199.31,-169.19 189.31,-165.69 189.31,-172.69"/>
        </g>
        <!-- append_to_state_tool -->
        <g id="node6" class="node">
            <title>append_to_state_tool</title>
            <path fill="lightblue" stroke="blue" d="M1089.51,-66.19C1089.51,-66.19 960.25,-66.19 960.25,-66.19 954.25,-66.19 948.25,-60.19 948.25,-54.19 948.25,-54.19 948.25,-42.19 948.25,-42.19 948.25,-36.19 954.25,-30.19 960.25,-30.19 960.25,-30.19 1089.51,-30.19 1089.51,-30.19 1095.51,-30.19 1101.51,-36.19 1101.51,-42.19 1101.51,-42.19 1101.51,-54.19 1101.51,-54.19 1101.51,-60.19 1095.51,-66.19 1089.51,-66.19"/>
            <text xml:space="preserve" text-anchor="middle" x="1024.88" y="-43.99" font-family="Roboto, sans-serif" font-size="14.00" fill="#666666">🔧 append_to_state_tool</text>
        </g>
        <!-- root_agent&#45;&gt;append_to_state_tool -->
        <g id="edge9" class="edge">
            <title>root_agent-&gt;append_to_state_tool</title>
            <path fill="none" stroke="#666666" d="M77.34,-151.33C93.87,-128.36 126.11,-89.48 164.81,-73.19 433.82,40.09 793.34,-5.16 947.96,-32.8"/>
        </g>
        <!-- load_data_into_state_tool -->
        <g id="node10" class="node">
            <title>load_data_into_state_tool</title>
            <path fill="lightblue" stroke="blue" d="M358.03,-241.19C358.03,-241.19 203.89,-241.19 203.89,-241.19 197.89,-241.19 191.89,-235.19 191.89,-229.19 191.89,-229.19 191.89,-217.19 191.89,-217.19 191.89,-211.19 197.89,-205.19 203.89,-205.19 203.89,-205.19 358.03,-205.19 358.03,-205.19 364.03,-205.19 370.03,-211.19 370.03,-217.19 370.03,-217.19 370.03,-229.19 370.03,-229.19 370.03,-235.19 364.03,-241.19 358.03,-241.19"/>
            <text xml:space="preserve" text-anchor="middle" x="280.96" y="-218.99" font-family="Roboto, sans-serif" font-size="14.00" fill="#666666">🔧 load_data_into_state_tool</text>
        </g>
        <!-- root_agent&#45;&gt;load_data_into_state_tool -->
        <g id="edge10" class="edge">
            <title>root_agent-&gt;load_data_into_state_tool</title>
            <path fill="none" stroke="#666666" d="M110.84,-181.89C127.75,-186.52 147.13,-191.71 164.81,-196.19 176.06,-199.03 187.95,-201.94 199.65,-204.74"/>
        </g>
        <!-- technical_writer -->
        <g id="node3" class="node">
            <title>technical_writer</title>
            <ellipse fill="lightgreen" stroke="green" cx="525.4" cy="-179.19" rx="85.84" ry="18"/>
            <text xml:space="preserve" text-anchor="middle" x="525.4" y="-174.99" font-family="Roboto, sans-serif" font-size="14.00" fill="#666666">🤖 technical_writer</text>
        </g>
        <!-- solutioning_room&#45;&gt;technical_writer -->
        <g id="edge2" class="edge">
            <title>solutioning_room-&gt;technical_writer</title>
            <path fill="none" stroke="#666666" d="M359.67,-172.39C381.93,-173.31 406.44,-174.32 429.61,-175.28"/>
            <polygon fill="#666666" stroke="#666666" points="429.2,-178.76 439.34,-175.68 429.49,-171.77 429.2,-178.76"/>
        </g>
        <!-- save_as_artifact_tool -->
        <g id="node8" class="node">
            <title>save_as_artifact_tool</title>
            <path fill="lightblue" stroke="blue" d="M847.2,-197.19C847.2,-197.19 718.75,-197.19 718.75,-197.19 712.75,-197.19 706.75,-191.19 706.75,-185.19 706.75,-185.19 706.75,-173.19 706.75,-173.19 706.75,-167.19 712.75,-161.19 718.75,-161.19 718.75,-161.19 847.2,-161.19 847.2,-161.19 853.2,-161.19 859.2,-167.19 859.2,-173.19 859.2,-173.19 859.2,-185.19 859.2,-185.19 859.2,-191.19 853.2,-197.19 847.2,-197.19"/>
            <text xml:space="preserve" text-anchor="middle" x="782.98" y="-174.99" font-family="Roboto, sans-serif" font-size="14.00" fill="#666666">🔧 save_as_artifact_tool</text>
        </g>
        <!-- technical_writer&#45;&gt;save_as_artifact_tool -->
        <g id="edge7" class="edge">
            <title>technical_writer-&gt;save_as_artifact_tool</title>
            <path fill="none" stroke="#666666" d="M611.51,-179.19C642.15,-179.19 676.48,-179.19 706.27,-179.19"/>
        </g>
        <!-- solution_architect -->
        <g id="node4" class="node">
            <title>solution_architect</title>
            <ellipse fill="lightgreen" stroke="green" cx="525.4" cy="-100.19" rx="92.3" ry="18"/>
            <text xml:space="preserve" text-anchor="middle" x="525.4" y="-95.99" font-family="Roboto, sans-serif" font-size="14.00" fill="#666666">🤖 solution_architect</text>
        </g>
        <!-- architectural_review_board -->
        <g id="node5" class="node">
            <title>architectural_review_board</title>
            <ellipse fill="lightgreen" stroke="green" cx="782.98" cy="-100.19" rx="129.28" ry="18"/>
            <text xml:space="preserve" text-anchor="middle" x="782.98" y="-95.99" font-family="Roboto, sans-serif" font-size="14.00" fill="#666666">🤖 architectural_review_board</text>
        </g>
        <!-- solution_architect&#45;&gt;architectural_review_board -->
        <g id="edge3" class="edge">
            <title>solution_architect-&gt;architectural_review_board</title>
            <path fill="none" stroke="#666666" d="M612.22,-93.77C624.67,-93.57 637.71,-93.46 650.81,-93.44"/>
            <polygon fill="#666666" stroke="#666666" points="650.8,-96.94 660.8,-93.45 650.8,-89.94 650.8,-96.94"/>
        </g>
        <!-- architectural_review_board&#45;&gt;solution_architect -->
        <g id="edge4" class="edge">
            <title>architectural_review_board-&gt;solution_architect</title>
            <path fill="none" stroke="#666666" d="M662.32,-106.93C649.37,-106.96 636.32,-106.91 623.68,-106.76"/>
            <polygon fill="#666666" stroke="#666666" points="623.78,-103.26 613.73,-106.62 623.68,-110.26 623.78,-103.26"/>
        </g>
        <!-- architectural_review_board&#45;&gt;append_to_state_tool -->
        <g id="edge5" class="edge">
            <title>architectural_review_board-&gt;append_to_state_tool</title>
            <path fill="none" stroke="#666666" d="M854.98,-84.8C884.27,-78.45 918.27,-71.08 948.04,-64.63"/>
        </g>
        <!-- exit_loop -->
        <g id="node7" class="node">
            <title>exit_loop</title>
            <path fill="lightblue" stroke="blue" d="M1056.07,-120.19C1056.07,-120.19 993.69,-120.19 993.69,-120.19 987.69,-120.19 981.69,-114.19 981.69,-108.19 981.69,-108.19 981.69,-96.19 981.69,-96.19 981.69,-90.19 987.69,-84.19 993.69,-84.19 993.69,-84.19 1056.07,-84.19 1056.07,-84.19 1062.07,-84.19 1068.07,-90.19 1068.07,-96.19 1068.07,-96.19 1068.07,-108.19 1068.07,-108.19 1068.07,-114.19 1062.07,-120.19 1056.07,-120.19"/>
            <text xml:space="preserve" text-anchor="middle" x="1024.88" y="-97.99" font-family="Roboto, sans-serif" font-size="14.00" fill="#666666">🔧 exit_loop</text>
        </g>
        <!-- architectural_review_board&#45;&gt;exit_loop -->
        <g id="edge6" class="edge">
            <title>architectural_review_board-&gt;exit_loop</title>
            <path fill="none" stroke="#666666" d="M912.36,-101.26C937.31,-101.47 961.78,-101.67 981.41,-101.83"/>
        </g>
        <!-- solution_architecture_team -->
        <g id="node9" class="node">
            <title>solution_architecture_team</title>
            <ellipse fill="#cccccc" stroke="#666666" cx="280.96" cy="-100.19" rx="116.15" ry="18"/>
            <text xml:space="preserve" text-anchor="middle" x="280.96" y="-95.99" font-family="Roboto, sans-serif" font-size="14.00" fill="#666666">solution_architecture_team</text>
        </g>
        <!-- solution_architecture_team&#45;&gt;solution_architect -->
        <g id="edge8" class="edge">
            <title>solution_architecture_team-&gt;solution_architect</title>
            <path fill="none" stroke="#666666" d="M397.5,-100.19C405.45,-100.19 413.43,-100.19 421.31,-100.19"/>
            <polygon fill="#666666" stroke="#666666" points="421.24,-103.69 431.24,-100.19 421.24,-96.69 421.24,-103.69"/>
        </g>
    </g>
</svg>